<svg width="636" height="334" fill="none" xmlns="http://www.w3.org/2000/svg">
  <path d="M-4 210c1 2 3 4 5 4 3 1 5 0 7-1 3-1 6-2 8 0l7 5-3 3c-2 5-1 11 3 14 4 4 11 4 15 1l4-3h1l-2 2c-3 5-2 11 2 15 5 3 11 3 16 0l3-2h1l-2 2c-2 5-1 11 3 15 4 3 11 3 15 0l3-2 4 4 5 3v-1l-4-4-4-3 2-4a17 17 0 00-1-10v-4c0-2-1-3-3-4v4l-1-1-1-2h-1v3l3 5c-1 3-1 6-4 8l-4-3v-1l4-2c1-2 0-4-2-5-3-2-8-1-11 1l-1-1 1-3a17 17 0 000-9v-5c0-2-1-3-3-4h-1v3l-2-2v1 3l3 4-4 8-4-3 3-3c2-1 0-4-1-5-4-2-8-1-11 1l-1-1 1-2a17 17 0 00-1-10v-4c0-2-1-3-3-4v4l-1-1-2-2v3l3 5c-1 2-1 5-3 7l-4-3 3-2c1-2-1-4-2-5-3-2-7-1-10 0l-8-6c-3-1-6 0-9 1H1c-1 0-3-2-3-4-1-3 2-8 5-8 2-1 4 0 5 2v2c-1 2-3 2-3 0H4c0 2 1 3 3 3s3-2 3-4c0-5-5-6-9-5-4 2-6 8-5 12zm66 42c0 2 1 3 3 4 1 1 4 2 5 1v1l1 1c0 1-1 3-3 3l-4 1c-3-3-4-7-2-11zm3 12c3 0 6-2 7-5l3 1v3l-2 3-6-1-2-1zm18-16l-2-7 2 3v4zm-4-3v-2-1l2 4 1 2h-1l-2-3zm3 4h1l1 7-3 6v-2l-2-3c2-2 3-5 3-8zm-3 9l1 2v3l-6 3 1-3v-3l2-1 1 1 1-1-1-1h1zm-5 1c-2 0-3-1-3-3l1-1 4 3-2 1zm2-9l-3 2-1 1-3-3v-4l4 1c1 0 3 1 3 3zm-8-3v4l3 2a4 4 0 00-1 3h-5l-2-2-1-3c2-2 4-4 6-4zm-27-9l3 3c2 1 4 2 6 1l1 2-3 4h-5c-2-3-3-7-2-10zm3 11c3 0 6-2 7-5l1 1h2v4l-1 2-6-1-3-1zm10 2l1-3v-3a6 6 0 002-1l2 1v-1l1 1v3l-6 3zm9-18l-2-7 2 4v3zm-4-3v-2h-1l3 3 1 2h-1l-2-3zm2 4h2l1 7-3 6-1-2-1-2 2-9zm-5 9l-3 1-2-2 1-2 4 3zm0-8l-3 2-1 1c-2 0-3-2-3-3v-3h4c1 0 3 1 3 3zm-8-3v4l3 3-1 3-5-1-2-2-1-3c1-2 4-4 6-4zm-27-9c0 2 1 3 3 4 1 1 3 2 5 1l1 2-3 3-4 1c-3-3-4-7-2-11zm12 7c-2 0-3-1-3-3l1-2 5 3-3 2zm-9 5c2 0 6-2 7-5l3 1v3l-2 3-6-1-2-1zm9 2l1-3v-3l2-1 1-1 2 1v4l-6 3zm9-18l-2-7 2 3v4zm-4-4v-1-1l2 4 1 2h-1l-2-4zm3 5h1l1 7-3 6v-2l-1-1 1-1-2-1c2-2 3-5 3-8zm-6 1l-3 2-1 1-3-3v-4l4 1c1 0 3 1 3 3zm-8-4v5l3 2-1 3h-5l-2-2-1-3 6-5zM286 23c0-6-6-8-11-11-6-3-9-8-13-13-4-6-9-10-16-11-6-1-12 2-18 5l-9 8-3 4-1 5-1 5v6l1 11c2 4 5 6 8 7 4 2 9 1 13 1l14 2 12 5c5 2 12 4 17 1 3-2 5-6 6-10 1-5 2-10 1-15zM228-4c5-4 11-6 17-6 7 1 12 5 16 10 3 4 6 9 10 12l8 4c3 2 6 4 6 7a11 11 0 01-3 6c-2 3-4 4-7 4-7 1-13-1-19-3l-10-2-9 1h-9l-7-5c-2-2-3-5-4-9l-1-5c1-7 7-11 12-14zm-13 27l1-8 2 8 3 3v10l-3-2-3-11zm26 15h-10v-4c0-1 0-1 0 0v4h-4v-5h-1v5l-5-2v-5-4c3 3 8 5 12 5l10-1c4-1 8 0 12 1h1v10c-5-2-10-4-15-4zm20 7v-4l1-5h-1v9l-5-2v-5l1-6 8 3-1 6v5h-1l-2-1zm23-9l-5 10c-3 2-7 2-10 1v-6h-1v6l-3-1v-5-6h10c4-1 6-2 9-5l1-2-1 8z" fill="#000" fill-opacity=".1"/>
  <path d="M232 26h9a43 43 0 0120 3l8 3 7-2 5-5-1-5-5-3c-2-1-5-2-6-5l-5-5c-3-5-6-9-11-12l-8-2h-5l-4 1-4 1c-3 1-5 3-6 5-4 4-5 10-4 15s5 9 10 11zm-7-24c2-2 3-4 6-5l4-2 5-1a42 42 0 0110 1c5 2 8 5 11 9l8 10 5 4 5 2v6c-1 2-4 4-6 4-6 1-11-2-17-4-5-1-10-2-16-1l-9-1-5-4c-4-5-4-12-1-18z" fill="#000" fill-opacity=".1"/>
  <path d="M240 11c4 1 8 1 11-2 2-2 4-8 1-10-2-2-4-1-6-1l-4 1h-5c-2 0-3 1-4 3-1 4 4 7 7 9zm-3-11h8l5-1c2 1 2 4 1 6l-4 5c-4 1-9-2-12-5-1-2-1-5 2-5z" fill="#000" fill-opacity=".1"/>
  <path d="M242 6h5l1-2-3-2-3 1v3zm2-3l3 1-2 2-3-1c-1-1 0-2 2-2zM256 24l9-1 9-3-9 1-9 2v1zM230 19l8-1 8-2 9-2 9-3h-1l-8 1-9 2-8 2-9 2 1 1zM325 82l-2-11-4-6-2-3-9-5c-8-3-17 0-24 4l-12 6-13 5-2 3v6l2 5-2 2-1 3c0 4 1 8 3 11l4 2 6 2 7 2 7 3c5 1 9 3 14 3 4 0 9-1 13-3 4-1 7-4 10-8 3-3 5-6 6-10l-1-11zm-10-19c5 6 3 16-1 22-3 6-8 13-15 14-4 1-8-1-12-2a103 103 0 00-20-4l8-11 12-3-3 4-6 9h1l6-7 4-7h1c1 0 3 0 4 2l3 2-1 1-2 3-3 7c-1 0 0 1 0 0l4-6 3-3 1-1c3-1 3-5 3-8l-1-2 4-5 2-3 2-3-1-1-4 5-3 6-4-5 2-2 2-5h-1l-3 4-2 4h-1l-1 2-2 3-2 1h-9l-2 1 4-6 3-4 2-4c1 0 1 0 0 0l7-3c7-1 16-1 21 5zm-20 6l3 1 2 4v5l-1 2h-1l-2-1c-2-2-3-4-5-4l-1-1 4-4 1-2zm-34 5l5-3-1 2-2 3 1 1 2-3 3-4 3-1 14-7-2 2-2 4-3 3-3 4-8 2h-7l-2-1c-1-1 1-2 2-2zm-2 10a21 21 0 01-1-6h2c4 2 8 0 12 0l14-3h1c1 0 3 1 1 2l-2 1h-2a92 92 0 00-24 7l-1-1zm-1 5l5-3 10-3-7 10h-4c-2 0-5-2-4-4zm29 21l-7-3-2-8h-1l2 8-2-1-1-3a457 457 0 00-2-6l1 6 1 3-1-1h-1l-1-3-1-4h-1l2 7-5-1-6-2c-3-1-4-5-5-9l1 1 5 1 14 1 13 4 9 1 2 10h1l-1-5-1-5h-1a16 16 0 003-1l1 6 2 5-5 1-13-2zm34-10l-9 8-4 2-2-8h-1l2 8-2 1-1-5-2-6c4-1 6-3 9-6l6-9 3-12-1-5 2 3 2 8c1 7 2 15-2 21z" fill="#000" fill-opacity=".1"/>
  <path d="M299 94v1l9-13 4-6 4-6-1-1-4 6a524 524 0 00-12 19zM301 158h-9l1-1h-1l-3 1c2-2 3-6 3-8l-1-1c-2 3-4 7-4 11l-1 1-5 2c3-4 4-9 5-14l6-1 4-2c0-2-3-1-4-1l-5 2 4-5 2-5v-1l-2 1a33 33 0 00-4 7l1-9c3-1 4-5 4-8-2 0-2 2-3 3l-1 3v-3h-1l-1 3-2-4c-1-1-3-4-5-4h-1c1 3 2 5 4 6l4 4-1 11-1 6a21 21 0 00-2-6l-1-1c2-3 1-7 0-10 0 0 0-1 0 0l-1 8-1-1-2-3-1-6c-1-2-1-4-3-5-1 4 0 8 3 11l1 2-6-3-5 1c-1 2 8 3 11 3l2 3-4-1h-6c0 2 3 2 4 2h7l3 8-2 6-1-5c-1-2-1-5-3-6h-1c-1 3 0 5 1 7l2 7h1l-3 4c0-3-1-6-3-8h-1c0 3 1 7 3 9l-5 7-1-4v-2c2-3 2-8 1-11 0 0 0-1 0 0-2 1-2 3-2 4l-1 3v1l-5-5-1 1 3 5c1 2 2 3 4 3a17 17 0 010 1l-6-2-1 1c2 2 5 3 8 3v3l-6 6 1 1 9-8 7 2c2 0 4 0 5-2 1 0 0 0 0 0-2-2-5-2-7-2l3-1 5-5c1 0 0 0 0 0a23 23 0 00-10 4l4-6 4-2c3 1 7 2 10 1l1-1c-3-2-6-2-9-1v-1l2-1h7l5-1v-1zm-8-12h2l-4 2h-4a17 17 0 016-2zm-6 2v-1 1zm2-6l2-2 2-3-3 5-3 5v-1l2-4zm0-11c1-1 1-3 3-3l-2 4-2 2 1-3zm-7 0l-3-5 5 4 2 3h-1l-3-2zm-9-2c2 1 2 4 3 6l1 4c-3-3-4-6-4-10zm-6 10h3l3 1 3 1-9-2zm14 2v4-9 5zm-6 5l-3-1h-1v-1l5 1 3 1h-4zm-6 17l2-4-1 9-1-1v-4zm-4 3l-2-3 5 5 1 1c-2 0-3-1-4-3zm-1 4l5 2c-2 0-4 0-5-2zm14-13c-1-2-2-5-1-7l3 6v6l-2-5zm-3 7l-1-4 3 7c-1-1-2-1-2-3zm10 11c-1 2-4 1-5 1l-5-2 10 1zm-7-4a23 23 0 018-3l-4 3-6 2 2-2zm11-16l2-4-1 4-3 4 2-4zm5 9l-4-1-4-1c3 0 6 0 8 2zm-3-5h9c-3 2-7 1-9 0zM120 23l-3 3-3 1-3-4c-5-3-12-2-17 1a26 26 0 00-12 10l-2-6c-3-5-7-9-11-11-3-2-6-3-10-3-2 1-5 2-6 4l-4-5c-4-3-9-3-13-1-6 2-10 6-11 12-5-2-9 1-11 5-3 5-4 12-3 18 0 3 1 5 3 7l5 2-1 2v9c1 6 4 12 8 16 2 2 5 3 8 3v3l1 4c1 2 3 1 5 0l2-2 1-1c1-2-1-2-3-3l-3-3 3-3v-9l-3-9-5-7-7-3c3-3 5-8 5-12V31l7 1a20 20 0 0015-9c1 6 4 10 8 14 2 2 5 3 9 4 3 1 6 2 9 1l2-1c1 3 4 4 6 4l10-1c6-1 11-2 16-6 2-2 3-4 3-7h7c2-2 0-7-2-8zM41 90l-5 2v-3l-1-4h1l3 3 2 2zM29 57l5 4c3 4 4 10 4 15 0 2 0 5-2 6-2 2-5 1-7 0-4-2-7-7-8-11l-1-5h1l3-4 3-2v-1c-3 1-5 4-7 6v-3c0-3 0-7 3-7 2-1 4 1 6 2zm-2-9l-4 5-2 1-6-1-2-5 7-2v-1l-7 2v-6l3-1 4-1v-1l-5 1-2 1 1-5 3-2h5v-1c-3-1-5 0-8 1l1-1 4-5c2-2 4-2 6 0 3 3 3 8 3 13l-1 8zm23-25c-2 4-6 6-11 7-3 1-8 1-10-2l-3-3c0-4 4-9 8-11 3-2 8-2 12-1 4 2 7 6 4 10zm28 17c-2 1-6 0-8-1l-8-3c-5-3-9-8-9-14v-2c4-5 9-4 14-2l-4 1c-2 0-4 2-5 4h1c1-1 3-3 5-3h6l3 3h-4c-3 1-5 4-5 7l5-5h6a23 23 0 013 4c-3-1-7 2-8 6h1l3-4 5-1 1 2c0 3 1 6-2 8zm34-5c-4 4-9 6-13 7-3 1-7 2-10 1-3 0-6-1-8-3l1-4 4-5 2 3 2 3c0 1 0 1 0 0 1-1 0-3-1-4l-2-3a26 26 0 015-3l3 2 2 4h1c0-3-2-6-5-7l4-2 4 3 2 4c1-3-1-6-4-7l7-1c3 1 5 2 6 5 2 2 1 5 0 7zm6-6l-3 1v-2l3-1 2-3 1 3 1 3-4-1z" fill="#000" fill-opacity=".1"/>
  <path d="M30 19l-1 1 5 3 3 4 1-1c0-4-5-6-8-7zM36 16v1l4 3 3 3s1 0 0 0c0-3-4-6-7-7zM43 15l-1 1c2 0 3 2 4 3h1c-1-2-2-4-4-4zM23 72l4-4 4-3-1-1-4 3c-1 2-3 3-3 5 0 0 0 1 0 0zM27 78l4-4 4-3h-1l-4 2-4 4 1 1zM273 262l-6-1-10 1a27 27 0 002-11c0-1 0-3-2-3-1-1-2 1-2 1l-7 7-3 9-7 4a52 52 0 01-20 6v-4h-2l-1 1v-1l-2-2-4 2-2 2c1-2 1-4-1-4l-4 3-2 1v-2c-1-1-3 1-4 2-5 5-8 10-11 15a53 53 0 00-16 28c-1-1-3 1-2 3 0 2 1 2 3 2h4c-2 1-3 6 0 6h6l6-2c9-2 18-5 26-10 4 1 7 0 10-1 2 0 4-1 5-3v-2l2-2c1-2 0-3-1-3l2-1 2-2-1-1 16-20 4-5 6-3h6l5-1c3-1 8-3 8-6v-1l-3-2zm-79 15l4-4 1-1v2l-1 2 1 1 5-5s2-2 3-1l-1 4h1l4-3 2-1c2-1 1 1 0 2l1 1 1-1 2-1v3l-10 2c-7 1-14 5-20 10l7-10zm36 24l-1 1h-2l-1 1v1c1 0 3 2 1 3h-3v2l2 1-2 2-5 1h-9l10-5a46 46 0 007-7l1-1c1 0 3 0 2 1zm16-23l-8 10-8 11h-3l-1 1a64 64 0 01-7 7l-10 6v1h1a100 100 0 01-33 11h-3c-1-1 0-4 1-5v-1l-5 1-2-1c0-1 1-3 2-2h1c3-12 10-23 20-31 5-4 11-6 17-8l20-3 10-4 7-5 5 2 3 3-3 2-4 5zm21-8h-12l-1 1-4-4-5-2a31 31 0 019-13l2-2c1-1 1 0 1 1v2l-2 10 1 1 10-1h6l2 1 1 1-3 3-5 2z" fill="#000" fill-opacity=".1"/>
  <path d="M178 310c-2-1-3 0-4 2 0 1 1 3 3 3 1 0 3 0 3-2l-2-3zm1 3l-3 1-1-2 2-1 2 2zM198 310l-7-4c-4-2-8-4-12-4l-1 1a70 70 0 0119 8l5 4 1-1-5-4zM206 301a74 74 0 00-14-5l-7-2v1l7 2a68 68 0 0113 5l6 4v-1l-5-4zM219 297l-3-3-7-3c-5-2-10-5-15-4l1 1c5 0 9 2 14 5l6 3 4 2 2 1h1l-3-2zM225 288a47 47 0 00-19-8v1a65 65 0 0117 8l6 4v-1l-4-4zM224 278v1l5 3 4 3h1c-1-4-7-6-10-7zM233 275v1l4 1 2 2 1-1c-1-2-4-3-7-3zM242 271v1l1 1h1c0 1 0 0 0 0l-2-2zM246 129l3-1 3-2 1-2-1-1-1-1-2-1-1-1v1l-2 1-2 3c-2-3-6-4-10-3l-9 1h-9c-5-1-11-4-15-7l-6-7c-2-2-3-4-6-5h-4v-3-3h-3l-2 3c-1 1 0 2 1 3l2 2c-2 2-3 5-3 7 0 6 5 11 9 15 3 4 7 6 11 9a46 46 0 0033 4c5-2 13-6 13-12zm2-8l4 4a10 10 0 01-6 2l-1-1c2-1 3-3 3-5zm-67-19l3-3v3l1 2-1 1-3-3zm52 37c-6 2-11 2-17 1-8-1-17-5-24-10a40 40 0 01-9-12c-1-3-2-6-1-9 1-2 4-4 6-3 3 0 4 2 6 4l-3 1-3 4v1l7-5a63 63 0 006 7c-2 1-5 4-4 6l1 1 1-4 3-3 8 5c-2 2-3 5-2 8h1l1-8a615 615 0 0111 2c-2 2-1 6 0 8h1v-8a44 44 0 009-1l-1 1 1 4h1v-3-2l6-1 4 1c1 1 3 3 3 5l-5 6-7 4zM299-14c-3-3-6-5-10-5v1l1 3v-1h-4l-2 1c-1 2 2 3 3 4v-1l-3 2c-1 0-2 1-2 3s5 1 6 0l-1-1-2 4h1l4-1-1-1-1 4 1 2c2 0 3-1 3-2l2-4h-1l-2 4-1 1-1-1 1-3v-1l-4 1v1l2-3v-1l-3 1c-1 0-2 0-1-1l4-3v-1l-2-1c-1-1 0-1 1-1l4-1v-1l-1-2h-1l9 4h1zM123 82l-6 1h-1l-3-7c-1 0-3-4-5-3-1 1 1 4 2 5l3 5h-2l-5-1c-1-3-4-9-6-7-1 1 1 3 2 4l2 3a60 60 0 01-5-2l-3-2-2-7-4-6h-1c1 6 4 11 8 15l-9-4-1-5-4-5v1l1 5 2 2a61 61 0 01-18-16v1a67 67 0 003 4l-4-2h-3v3l4 2c2 2 6 4 9 4l4 3-3-1-5 1v1l5 2h2l-2 1c-1 0-4 3-3 4l3-1 3-1 4-3 1 1 5 2-9 1v1l6 1 6-1 3 1c-4 0-8 3-11 6l1 1 7-2 6-5 4 1-2 2c-3 1-5 2-7 5l1 1 3-1 4-1 4-3-2 7c-1 0 0 0 0 0 2 1 4-2 5-4l2-3 1-2h3l7-1v-1zM91 67l2 4 2 5a26 26 0 01-4-9zm-21-1l-3-1-1-1c-2-1-1-2-1-2a17 17 0 016 3l5 4-6-3zm42 14l-3-6 4 5 2 4h-1l-2-3zm-11-4l3 4v1l-1-1-2-4zm-15-5l1 4-1-3-3-4 3 3zm-12 2l5 1 3 1h-3l-5-2zm3 6h-1 1l3-2 4-1c-2 2-4 3-7 3zm8 2l3-1h3l-2 1h-4zm8 5l-5 2c3-3 6-5 10-5l-2 1-3 2zm10 1l-3 2-3 1 5-4 5-2h1l-2 2-3 1zm7 1l-4 4 5-8h1l-2 4zM314 211l-3 1v2l1 3-1 11c-4 0-7 4-6 7l1 1-2 7-6 8-6 8-3 4-4 3v1h1l5-1 5-2a44 44 0 0019-22l1-4c2-2 1-5 1-7l-3-3a24 24 0 001-14l-1-3zm-1 31a43 43 0 01-9 14c-5 4-10 8-16 10l2-2 3-3 7-9 5-8 2-9 3-1v2h1l2-1 2 2-2 5zm2-9l1 2v1l-1-1-1-1-1-1-2 2v-3h-1l-4 2c1-3 3-5 6-4 2 0 3 1 3 3zm-1-17v4l-1 8h-1a39 39 0 001-11v-4l1 3zM306 170c-2 2-2 5-2 9 1 3 3 6 6 8l6 5h8c3-1 5-3 5-6s-2-6-4-7l3-3v-4c0-2-2-3-3-4l-3-1-3 2-1 2c-3-4-8-5-12-1zm11 2l-1 2c-1 1-2 2-3 1l-1-2h2v-1h-2l-1 2c-1 2 1 3 3 3 3-1 4-3 5-5 1-1 1-3 3-3l2 1 3 2c1 3-1 4-3 5-1 2-4 3-4 6 0 2 1 4 3 4 2-1 3-3 1-5l-1 1c2 2-1 3-2 1l1-3 2-2 2 3c1 1 2 2 1 4 0 3-2 5-5 5l-6-1-7-5-3-6c-1-3-1-6 1-8s3-2 5-2 4 1 5 3zM239 175c-3-3-7-4-11-5v-2l-1-2-5 4-4 1 2-4 1-4-1-2-1-1a36 36 0 01-4 9l-2 1-1-4v-7l1-4c0-1-2-2-3-1-2 1-3 6-3 9l1 6 1 2-3-2-4-3-1 1c0 2 0 4 2 5l1 1h-8v1c0 2 1 3 3 3l-7 8c-1 4-1 9 1 13 3 9 13 12 21 11l8-1c5-1 9-4 13-7l6-9c2-6 3-13-2-17zm-42 0h6l7-1v-1h-3l-3-1-2-4c2 2 5 4 8 4l2 2c0 1 0 0 0 0l-2-5-1-5v-5l2-4c2 0 0 4 0 4v5c0 3 0 7 2 9 1 0 2 0 1-1v-1l3-4 3-5-1 4-2 5h-1v1l6-2 5-2-1 2-3 3h-8v1c1 2 4 5 7 5l-1 1h-3l-4-5h-1v1l-3 5-3 2-3 1c3-2 7-4 7-8h-3l-4 1c-2 0-5 0-7-2zm43 11c0 4-2 8-5 12s-7 7-12 8a29 29 0 01-18 0c-3-1-7-3-9-6s-4-8-3-12c1-5 3-8 7-11l3 1h5l2-1c-2 3-5 5-8 6v1c2 2 6 0 7-1 2-1 4-3 5-6 1 2 2 4 4 4h4l2-1v-2l-4-1-3-2 7-1 3-3c4 1 9 3 12 7 2 2 2 5 1 8zM187 232l2 1c0 2 1 3 3 3l6 3c3 0 9 0 10-5 0-2-2-3-4-4l-6-2-7 1-2 2a1275 1275 0 00-5-1l-6-4-2-7a19 19 0 0013 5c1 0 3 0 5-2 3-3-5-6-7-7h-12v-5h-1v5l-4 2-5 3-4 6c-1 1-2 3-1 5 2 3 7-1 9-3l4-5 1-4v-1l1 1v1a46 46 0 002 8v5c-3 1-3 5-3 7 0 3 2 7 5 6 3 0 3-4 3-7 0-2-1-6-4-7v-1-1a42 42 0 008 11c-1 3 0 7 2 9 2 3 6 5 9 2s2-7-1-9a15 15 0 00-9-4 879 879 0 00-8-10 20 20 0 008 3zm3-1l2-1h5l5 1 4 3c0 2-2 3-3 3h-5l-5-1-3-3h1v-1h-1v-1zm-9 8c0 2 0 5-2 6-3 1-4-3-4-5s0-5 2-6v1h1v-1l3 5zm12 4c3 1 6 5 3 8-2 2-6 0-8-2l-2-8 2 1v-1h1l4 2zm-8-27l5 2 2 2c1 1 0 2-1 2l-9-1-7-5h10zm-13 4l-3 5-3 4-2 1-3-1 6-9 4-3 2-1h1l-2 4zM160 289c-1-2-2-5-4-6l-2-1c0-2-3-3-6-3l1-6-2-5c0-2-1-3-3-3-1-1-2 0-3 1s0 3 1 4l2 6-2-2-5-1-1-1-6-1c-5 2-7 7-9 11l-3 9-5 7c-3 4-5 9-4 14 1 3 2 5 4 6s4 2 6 1c1 3 4 4 5 3 1 5 6 7 10 6 5-2 7-8 10-12l7-6 6-5c3-5 4-10 3-16zm-7-7l-6-1 1-2c2 1 4 1 5 3zm-9-11l-2-4 3-1 1 3 2 4c0 3-1 7-3 9l-1-1 1-7-1-3zm-3 4l2 3v2l-3-1-2-5 3 1zm-27 41c-2-1-3-3-3-5-1-4 2-9 4-12l7-12c1-5 2-10 6-13 2-1 4-2 6-1l5 6h-5l-4 3-3 6-5 12c-1 4-4 8-4 12v6c-1 0-3 0-4-2zm7 4l-2-4 1-7 3-6 3-7c2-5 3-9 6-13 1-2 3-3 5-3 2-1 3 0 5 1 1 1 1 2 3 2h3l2 5-1 7c-2 4-4 9-7 12-2 4-5 8-8 10-3 3-9 6-13 3zm35-18c-2 4-7 7-10 10-4 3-6 8-9 11-1 2-4 4-6 3-3 0-4-1-5-4l4-1c4-1 7-4 9-7l7-10 5-11c1-4 0-9-3-11l-1 1h-1l1-1 6 1c2 1 4 2 5 5 1 4 1 10-2 14zM284 204l-6-3h-7c-3 0-5-2-7-4l-6-3c-5-1-9 1-13 4-4 4-5 9-6 14s-1 10 3 14c3 5 9 6 13 7l7 4 7 1c5 0 9-2 12-6 4-3 5-8 6-13s0-12-3-15zm-3 25c-2 4-6 6-10 7l-7-1-6-3c-4-2-9-2-13-5s-5-8-4-13 2-10 5-14 8-6 13-4l5 3 2 2c5 2 11 0 15 3s5 8 4 12c0 5-1 10-4 13z" fill="#000" fill-opacity=".1"/>
  <path d="M266 205c1-3-2-4-4-5h-1c-3-1-5 0-8 1-5 3-8 9-8 15 0 3 1 6 3 8 1 2 4 5 6 5 3 0 5-1 5-4s-3-5-3-8l1-4 4-3c2-1 5-3 5-5zm-11 15l-2 1-2-1c1-2 2-2 4-2v2zm-2-6l-1-2c0-2 2 0 3 1v2l-2-1zm4-4v-3c1-1 2 1 3 2l-3 1zm3-1c0-1-1-4-3-3v5l-1 1c-1-1-4-3-5-1s1 5 3 5v2c-1-1-4 0-4 2s4 2 5 1l2 3c1 2 0 3-2 4l-4-2c-2-1-3-4-4-6-1-5 0-11 4-15 1-2 4-3 7-4l4 1 2 1c1 1 2 2 1 3l-2 2-3 1zM278 207l-4-2h-3c-2 0-3 2-4 4l2 7c0 4-2 6-4 8-2 1-5 3-4 6 0 2 3 3 5 3 3 0 5-1 7-3 5-3 8-9 8-15 0-3-1-6-3-8zm-9 6h4c0 2-2 2-3 2l-1-2zm1 6v-1l3 2c0 2-2 1-3 1v-2zm-2 4l1 1v2c0 2-1 1-2 0v-1-1l1-1zm6 5l-6 4h-4c-1-1-3-3-1-4l3-3c0 2 2 4 3 3 2-1 1-5-1-5l1-2c2 1 4 2 5 0 0-2-2-4-4-3v-2c1 0 4-1 4-3-1-2-3-1-5-1v-4l1-2h3l4 2 2 6c0 5-1 11-5 14zM162 93l-1-1-7-1c-3 0-19 2-22 5l-1 2c0 6 1 13 3 19 2 5 5 10 10 13l5 2a220 220 0 012 18l1 6c-1 3-4 5-7 7l-2 2c0 2 1 2 3 2l9 1 9-2c2-1 6-3 4-5l-4-2-5-2-2-5a102 102 0 01-2-14l-1-6 3-3c4-3 7-8 8-14v-11c-1-4-1-8-3-11zm-13 17a80 80 0 0113 0l1 1-6 2c-4 2-9 3-13 3l-7-1-2-1 1-1c4-2 9-2 13-3zm7-2a69 69 0 00-21 4l-1 1-2-14 5 1a56 56 0 0018-3l6-2 1 7 1 7-7-1zm-21-12l6-2a86 86 0 0118-1h2l-2 2-8 2-6 1h-6l-6-1 2-1zm18 45l2 11 4 7 3 1 4 2-4 3-5 1h-11v-2l4-2c2-2 3-4 3-7l-1-11a140 140 0 00-1-11l1-1 1 9zm5-15l-6 4c-2 1-5 0-6-1a22 22 0 01-11-13l5 1a39 39 0 0017-2l6-3c-1 5-2 10-5 14z" fill="#000" fill-opacity=".1"/>
  <path d="M136 103a36 36 0 006 19l5 5c0 1 0 0 0 0l-4-5-3-6-4-13c0-1 0-1 0 0zM178-46h-3l-1 1c1-3-1-6-3-9-4-3-10-5-15-6a29 29 0 00-28 8c-3 4-6 7-7 12-2 3-3 7-1 11h-3l-1 3 5 1 1 3c-1 2 0 4 1 5l3 3v5l3 3-1 6c2 2 4 4 6 4 6 2 13 0 19-2l15-5c4-2 8-3 11-6l3-6c1-3 0-5-3-6l1-2c0-3-1-5-3-7l2-4c0-2-1-4-3-5l2-2 2-2c1-1-1-3-2-3zm-56 9a34 34 0 0120-21c8-2 17-1 24 3 3 2 8 6 6 11l-5 4-5 3-23 8-12 1c-2 0-4-1-5-3v-6zm5 23l1 1h11l4 1 5 2 10 1h1l-9 3c-5 1-9 2-14 1l-7-2c-1-2-3-4-2-7zm31 4c-6 0-12-1-17-4h3a73 73 0 0025-9l-4 8-2 4-5 1zm19-7l1-1-1 1-4 4a80 80 0 01-36 11c-2 0-5 0-6-3 5 3 10 2 15 1l16-4c5-3 11-5 15-9zm4 3l-5 5-8 4a102 102 0 01-28 8c-3 1-6 0-8-1-2-2-4-5-2-7 1 3 6 4 9 4a80 80 0 0029-8c3-2 7-3 9-7l2-3v-1c2 2 2 4 2 6zm-16 3l1-2 2-5 3-6a38 38 0 005-4c7 7-5 14-11 17zm12-21l-4 5-3 2a70 70 0 01-37 11c-3 0-5 0-7-2-2-1-3-3-3-5 2 1 3 0 4-1 1 0 2-2 3-1l2 2h4l1-2 2 1 5 1 3-4h1l2 1h3l4-3 2-2 3 1 3-2 1-2c1-2 2-2 4-2 1 1 3 1 5-1l1-1v-1c1 1 2 3 1 5zm-1-10l-1 2-1 3-2 2h-6l-2 5h-6c-2 0-2 2-3 3-2 3-6 1-7 1-2-1-3 1-4 2 0 1-1 2-3 1l-2-1c-2-1-2 0-4 1-2 2-3-1-4-1-2-1-4 1-5 2l-3-1v-1l-1-2h-2l-2-1v-1l3-1v1l-2 1h1l2-1 4 2-1 1 2-1h7l-1 1h1l1-1 6-2v2s0 1 0 0l1-2 9-2 1 1v-1l-1-1 9-3 1 1h2v-1h-2-1l2-1 6-3h4l-3-1 3-3 1-1 2-1h3c1 1-1 2-2 2zM226 77c-2-2-5-1-7-1-3 0-5-1-7-3v-2l-5-4-4-5c-2-4-2-9-2-14 0-4 0-8-2-12a30 30 0 00-15-17l-13-2c-4-1-8 0-12 1-4 2-7 5-9 9-4 5-7 12-7 18-1 5 0 10 2 15l4 6a25 25 0 0017 8c6 0 13-2 20 0l9 3 6 5h5l2 2 4 3-1 4v3c1 4 6 6 9 3l1-6v-3c0-2 1-2 3-2l4-4-2-5zm-82-23c-1-8 1-17 6-24 2-4 5-7 9-9l1-1c3-1 6 0 7 2 3 4 3 8 3 12-1 5-3 9-6 13-2 4-5 7-8 9-2 1-5 2-7 1-2 0-4-1-5-3zm62 25c-2 2-4 1-6-1-4-3-9-6-15-7-5-1-11 0-17 1a24 24 0 01-22-14l6 1c5-1 9-5 12-8l7-15c1-5 1-10-2-14l-4-3h6c4 0 9 1 12 3 4 1 7 3 9 6l6 10 1 12c0 5 0 9 2 13l4 5 5 4-2 4-2 3zm20 3l-3 2-4 3 1 5c-1 3-2 5-4 5-3 0-4-3-3-5v-7l-3-2-3-2 2-1 2-5 2 1c2 2 4 2 6 2 2-1 5-1 7 1v3z" fill="#000" fill-opacity=".1"/>
  <path d="M159 41l2-5c-1-3-3-3-5-2-3 1-5 6-3 8s5 1 6-1zm-5 0c-1-1 0-3 1-4 0-1 2-3 4-2v4c-1 2-3 4-5 2z" fill="#000" fill-opacity=".1"/>
  <path d="M153 56c6-2 10-8 13-14l3-11-1-7c-2-3-5-4-8-3l-1 1-8 7c-3 5-5 12-6 18l1 8c2 2 4 2 7 1zm-5-1c-2-1-2-4-2-7 0-5 2-10 4-15l6-8 4-2c1-1 4-2 5 0 2 1 2 4 3 6 0 6-2 13-6 18l-6 6c-2 2-5 3-8 2zM154 64v0zM157 60v1h1l-1-1zM161 66v0zM166 64v1h-1 2l-1-1zM173 63h-1v1h1v-1zM171 67v0zM164 59v0zM179 66v0zM83 112c-4 3-6 7-7 12l-4 18-3 9c-1 2-3 5-3 8v1l-3 4-5 2-4 2 1 4 1 1 3 1 1 2 2 2c1 1 2 0 3-1 2-1 1-2 1-4l2-4 4-5h1l3-3 4-2 7-5 13-10c4-3 7-7 8-12 2-9-5-19-13-21-4-1-9-1-12 1zm-12 51l-6 8v5c-1 2-3 0-4-1v-2l-2-1-3-1v-3l3-1c4 0 7-3 8-6h2l2 2zm35-37c3 10-8 17-14 22a794 794 0 00-16 13c-1 0-3 2-4 1l-2-2-3-1 2-3 1-3c2-2 2-4 3-7 2-4 3-9 3-14 1-4 1-9 3-13s6-6 10-7c8-1 15 6 17 14z" fill="#000" fill-opacity=".1"/>
  <path d="M80 132v1h1v-1h-1zM79 128c-1 0 0 1 0 0 1-1 0-1 0 0zM80 123l1 1-1-1zM82 126v1h1l-1-1zM85 123h1v-1l-1 1zM82 119v1h1l-1-1zM84 130h0zM321 299l-2-7a20 20 0 00-11-8l-8-1h-4a22 22 0 00-15 12l-2 7 2 8a20 20 0 008 11c5 2 11 3 17 1 9-3 16-12 15-23zm-39-2c1-4 4-7 7-9 5-4 12-5 18-3a13 13 0 0110 9c2 7-1 15-7 20-6 4-14 6-21 2-7-3-10-12-7-19zm35 13c-4 9-15 13-25 10-3 0-5-2-7-5l1 1c6 5 16 4 23 0 6-4 11-12 10-20v2c1 4 0 8-2 12z" fill="#000" fill-opacity=".1"/>
  <path d="M304 314c6-3 10-8 11-15s-5-13-12-14c-6 0-13 3-17 8s-4 12 0 17 12 6 18 4zm2-2l-9 2 1-6 1-3 1-3 5 3 6 2-5 5zm-8-12l1-1 1 1v1h-1l-1 2-1-1 1-1v-1zm16-2c0 3-1 6-3 8l-6-3-3-1-1-2 2-1h3l8-3v2zm-11-11c3 0 5 1 7 3l4 5-7 2-4 1-2 1h-1l-1-1 1-1v-1l1-3 2-6zm-1-1l-2 6-1 3-1 3c-1 1-2 0-3-1l-2-1-4-4c3-4 8-6 13-6zm-14 6l1 1-1-1zm-2 3l1-2 4 2a39 39 0 005 4v2l-3 1-3 1-5 2c-1-3-1-7 1-10zm4 9h3l1-1h3v5l-2 6-7-3-3-5 5-2zM297 297l-6-7 6 7zM298 297v-9 9zM301 297l4-9-4 9z" fill="#000" fill-opacity=".1"/>
  <path d="M303 297l9-4h-1l-8 4zM304 301h9-9zM300 305v7c0 1 0 1 0 0v-7zM302 305c0-1 0 0 0 0l4 4h1l-5-4zM295 304l-8 4h1l7-4zM295 306l-3 6 3-6zM294 301c-3-1-6 0-9 1l9-1zM287 296l5 2-5-3v1zM105-12l-3-2-5-2-5-3-2 1-2-2h-2c0-2-3-4-4-4a171 171 0 00-11-6c-5 8-6 19 0 27 6 7 18 9 26 4l5-5c2-2 4-4 4-7l-1-1zm-15-2v-3l2-1 3 1 3 3 3 1-2 5a14 14 0 01-10 6l1-12zm-2-5l1 3v5l-1 9h-3c-4-1-7-2-10-5-2-1-3-4-4-7l8-2 7-3h2zm-5-4l3 3h-1l-5 2-9 4v-2l2-12 6 3 4 2zm18 18l-4 4c-4 2-8 3-12 2-5 0-9-2-12-5s-4-7-5-11c0-5 1-9 3-14l2 1c-4 6-5 16 0 22s15 7 22 3l5-4 2-5 2 1-1 3-2 3zM101 212v-4l-1-6v-7-7-1c2-2 2-3 2-5v-3h-1v-4c0-2-4-3-6-4h-9l-1 2-1 3-2 3 1 5v1l-2 7-2 6-3 7-1 3-1 3 3 5 4 4 5 1 6 1 4-3 5-3v-4zm-14-39l7-1 2 1 2 1h1l1 1h-1l-1 1-3 1-7-2c-1 0-3-1-1-2zm-2 2l1 1c3 2 6 2 9 2l5-1v4l-8 1-4-1-3-2v-2-2zm-1 6v-2 1c2 2 5 3 8 3l8-1h1l-2 4c-2 2-5 2-7 1-3 0-5-1-7-3-1-1-2-2-1-3zm-3 37l-2-3-4-3 1-3 2-4 2-6 2-7 2-6 5 2-2 7-2 8-2 8-2 7zm6 1l-5-1 2-6 2-8 2-8 1-8 2 1h2l-1 7v17l-1 7-4-1zm9-1l-4 2 1-7a412 412 0 000-17v-7l5-1 1 6a613 613 0 000 18l1 4-4 2z" fill="#000" fill-opacity=".1"/>
  <path d="M88 174l2 1 1-1-1-1-2 1zM94 174h1l-1-1h-2c-1 1 2 1 2 1zM94 176v-1h-2-1l3 1zM96 176h2v-1h-2v1zM147 207l-3-9-5-5-4-8c-3-5-4-11-5-16a2 2 0 001-1v-5l-1-4-3-2-8 2c-1 0-5 1-5 3v4l2 5h1l2 15-1 8-3 7c-2 5 0 12 1 18l2 10c1 2 1 6 3 8 3 4 9 5 13 4l9-2 5-4c2-2 2-5 2-8a140 140 0 00-3-20zm-27 19a140 140 0 01-3-19l3 1h10l10-3c1-1 3-2 3-4l2 8 2 13-5 4a34 34 0 01-16 3c-2-1-5-1-6-3zm-4-60l-1-3h2l1 7h-1l-1-4zm3 4l-1-3-1-4h2l1 4v3h-1zm1-4v-3h2v3l1 3-2 1-1-4zm3 0l-1-4h2l2 7h-2-1v-3zm3-1l-1-3h1l1-1 1 7a10 10 0 01-2 1v-4zm2-4h1a27 27 0 011 6l-1 1-1-7zm-11 0l3-1 8-1-6 2-7 1 2-1zm3 33l1-7-2-16h5l4-1 1-1 3 14c1 4 3 8 7 12l4 5-5 4a29 29 0 01-16 3l-3-1-2-1v-3c1-3 3-5 3-8zm25 41c-2 1-4 3-7 3l-8 1c-2 0-5 0-7-2s-2-5-3-8l4 1 10-1c4 0 7-1 10-3l4-3v5c0 3-1 5-3 7zM91 303c-1 5-3 9-7 12l-7 4-4 2-3 2v0l-8-1-10-2c-5-3-10-7-10-13-1-4 1-7 4-10 5-5 15-9 15-17l1-1c3 6 9 4 15 5 8 2 15 10 14 19zm-27-20c0 4 1 7 3 11 2 3 5 5 6 9v10l-1 5v2l1-1 1-4 1-4 2-7c0-7-6-11-10-14-1 0 0 0 0 0 5 3 10 6 11 13l-2 8-1 4-1 4 5-10c2-4 2-8 1-11-3-6-10-8-13-13l-3-2zm7 37l1-4 1-5c0-4 0-7-2-10l-6-9-2-9-1-2v1l1 9-1 5-2 5c-1 4 0 8 2 11l6 9 2 1 1-2zm-13-7c-2-3-3-6-3-10l1-4 3-4c2-3 2-6 2-10l-1 2-3 7-4 8 2 10 4 5 2 3h2l-2-3-3-4zm-1-23l-2 1-4 7a15 15 0 001 16l5 5 3 1a31 31 0 01-6-7l-2-10 4-8 2-4 1-3-2 2zm-2 29c-4-3-6-7-7-12l2-8 5-7c-5 4-12 8-11 15 1 6 6 10 11 12zm12 1a189 189 0 01-6-7l-2-10 3-10v-10l-1 2v8c-1 3-4 5-5 9 0 3 0 7 2 10l4 5 3 3h2zm11-3c4-5 7-11 6-18-1-4-3-7-5-9l-8-4-1-1h-3c2 3 5 4 8 6s5 4 6 8c2 6-1 14-6 19l3-1zm5-28l-6-3h-5l4 2 4 2c3 3 4 6 5 9 1 6-2 13-6 17l4-2a14 14 0 006-13c0-4-3-9-6-12zM267 330c-3-4-8-5-12-6l-7-1c-4 0-7 1-10 4a11 11 0 00-2 7h1l1-4 4-4 7-2 4 1c3 1 7 1 9 3l6 6h1v-1l-2-3z" fill="#000" fill-opacity=".1"/>
  <path d="M258 330c-2 0-2 2-4 3-1-2 0-3-2-4-3-3-8-1-11 2l-1 3h1l1-1c1-3 4-4 6-4a4 4 0 014 1l-6 2-2 2h1l1-1 4-1h2l1 2h3l1-2c2-1 4 0 5 1l1 1h-4 6c-2-3-4-5-7-4zM-8 147l2 6h2a417 417 0 0115 27c3 2 6 1 10 0a52 52 0 0024-16c1-2 2-5 1-8 2-2 4-5 4-9 1-4-1-8-3-12l-6-12c-2-3-5-6-9-7-2 0-6 0-8 2l-1-3-2-1h-1c0-2-1-4-3-5s-5 0-7 2c-3-3-8-2-10 2h-5c-2 1-3 4-2 6l-4 1v1h4l1-1 1-5h6c1-4 6-5 9-2l1-1c1-1 3-3 5-2s3 4 3 6l-1 1c-3 5-9 9-15 12v1c0 2-1 4-3 5l-4 2-1 4 2 4c2 2 1 5 0 6h-2l-1-1v-3l-4-4-1-1v2l3 3zm24 32l-8-16-5-8-4-7a6 6 0 00-1-4h2v1l2 2 2 4 6 10 10 18h-4zm9-2l-3-7a919 919 0 01-12-22c-1-1-4-7-2-8l2 3 2 3 8 14 9 15-4 2zm12-7l-3 2-8-14-7-15-3-6c0-1 0-2 1-1l2 2a161 161 0 0110 16l4 8 4 8zm5-5c-6-9-11-17-15-26l-4-8v-1h2l2 4 8 13 9 15-2 3zm-13-47l5 1c4 2 6 7 8 11 4 6 11 18 3 24l-2-3c2-1 3-5 3-7l-5-11c-2-4-4-8-7-10-2-1-5-2-7 0l-2-3v-1l4-1zm12 31a329 329 0 01-13-24l-1-1c6-3 10 6 13 10l3 8v4c0 2-1 2-2 3zm-43-5c-1-2-3-3-2-5 2-3 5-2 6-4l2-4a33 33 0 0014-11l2-3h2v1a522 522 0 0019 34c2 3 5 6 3 10l-9-15-4-8-5-8c0-1-2-4-3-3v5l4 7 4 8 10 18-4 3-4-7a450 450 0 00-13-24c-1-1-2-4-4-3-2 0-1 3 0 3l3 7 5 9 9 18-3 2-1 1-9-16a795 795 0 00-12-19c-2 0-2 1-2 2l4 8a216 216 0 0010 18l5 9h-1l-4 1-13-23-3-5-3-6-3-1v1zm1 7v-2l4 6 4 9 9 15h-2c-2 0-4-2-4-4l-4-6a384 384 0 00-7-18zM26 306c1-3 0-5-1-8v-9l6-21h2v-1-3c1-2 0-3-1-4l-5-2-5-1-3 1-1 3-1 1 1 1-7 19-5 7-5 5-3 6a211 211 0 00-7 20l-2 9 3 5h2l-3-4c-1-3 1-6 2-9v-3l3 3a25 25 0 0018 6h4l-3 7h2l3-10 6-18zm-6-48h4l3 1c1 0 7 3 5 4h-3l-7-2c-1 0-3-2-2-3zm-2 4v-1l1-1 1 1 5 2 5 2 2-1v3l-1-1h-1-2l-1-1h-3l-1-1h-2l-1-2h-2zm1 1l1 1 1 1h2l1 1h2l1 1h3l-2 6-5-2-6-2 2-6zm-2 7l5 3 6 1-3 8h-2l-4-1c-2 0-4-1-5-3l3-8zM2 295l5-5 5-7 1-3 6 3 6 1-1 1-1 8 1 7 1 4h-5a40 40 0 01-19-8l1-1zm-5 25l-3-4 1-4 4-10 2-5 2 2 3 2c-4 1-6 5-8 8v12l-1-1zm8 5l-6-3-1-6 1-6 4-6 4-2a41 41 0 0010 3l2 5-1 7-3 5-4 4-6-1zm13 0l-4 1h-2c4-2 6-6 7-9 1-4 1-8-1-12l2 1h4v2l-3 8-3 9z" fill="#000" fill-opacity=".1"/>
  <path d="M14 318H9v-1l1-1h6v-1l-2 1h-3-1v-1l2-1 4-1h-3l1-1 3-2h-1l-1 1h-1-1-1v-1-2h-1 1l1-3h-1l-1 3-1 1-1 2v-2a11 11 0 010-2l1-1-2 3-1 2v-1H6l1-1v-2l-1 4-1 4-1-2v-1l1-4-1 4H3l1 6-1 1-1 4h1l1-4h5l5-1s0-1 0 0zm-2-7h1a2 2 0 011 0l-1 1h-1v1h-1-1l1-2h1zm-2-1l1-2v3l-2 1 1-2zm-1 3h3l-1 1-1 1H8l1-2zm-1-2v-1l1 1v1l-2 2 1-3zm-1 4h1l1 1h1l-2 1H7l-1-1 1-1zm-1-3l1 2-1 1v-3zm-2 6v-5a21 21 0 001 3l-1 2zm0 0l2-1 2 1H4zM14 287l1-4h-1l-4 8c-2 2-5 2-5 5 0 1 0 1 0 0l4-3 3-2 2-4zM-4 44l2-8v-4c0-1-1-2-3-2l3-3-2-4-2-4V9c0-8 3-14 5-21h1l2-1h1v-5l-2-5c-1-2-2-4-5-5l1-2-2-2c-2-1-3 0-4 1v2l-2 1v1h5c3 1 5 3 6 6l1 4v3H0l-3 1a23 23 0 01-8 0v1h2a24 24 0 007 0v1l-2 1a14 14 0 01-7-1v1l3 1 5-1C-6-4-8 3-8 9a37 37 0 002 15l2 3c-1 1-2 2-5 2h-2v2a25 25 0 005-1v2h-2l-3 1v1l6-1 1-1v6l-1 4v2c-2 2-4 2-6 2v2c3 0 6-1 7-4zm-1-73v1l-1-1h-2v-2h2c2 0 2 1 1 2zm0 61v-1-1l1 1-1 1zM327 126c-2 1-3 2-3 4v3l2 2 1 4 1 3 2 2v-2c-2-1-2-3-2-5v-2l-2-2c-3-2 0-5 2-6v-1l1-4 1-1v-2l-1 1c-2 2-2 4-2 6zM337 210c1 2 2 4 5 4 2 1 4 0 7-1s5-2 8 0l6 5-2 3c-3 5-2 11 2 14 4 4 11 4 16 1l3-3h1l-1 2c-3 5-2 11 2 15 4 3 11 3 15 0l4-2-1 2c-3 5-2 11 2 15 4 3 11 3 16 0l2-2 5 4 4 3 1-1-4-4-5-3 2-4a17 17 0 00-1-10l1-4-3-4h-1v3l-2-2h-1l1 3 2 5h1l-4 8-5-3 1-1 3-2c2-2 0-4-2-5-3-2-7-1-10 1l-2-1 2-3a17 17 0 00-1-9v-5c0-2-1-3-3-4v4l-1-1-1-2-1 1v3l3 4c-1 3-1 6-3 8l-5-3 4-3c1-1 0-4-2-5-3-2-7-1-10 1l-2-1 1-2a17 17 0 00-1-10v-4l-2-4h-1v4l-1-1-1-2h-1l1 3 2 5-2 7-5-3 3-2c2-2 0-4-2-5-3-2-6-1-9 0l-9-6c-3-1-6 0-9 1h-5c-2 0-3-2-4-4 0-3 2-8 6-8 2-1 4 0 4 2v2c0 2-3 2-2 0h-1c-1 2 1 3 2 3 2 0 3-2 3-4 0-5-5-6-8-5-4 2-7 8-5 12zm65 42c0 2 2 3 3 4 2 1 4 2 6 1v1l1 1c-1 1-2 3-4 3l-4 1c-2-3-3-7-2-11zm3 12c3 0 6-2 7-5h1l2 1v3l-1 3-6-1-3-1zm19-16h-1l-1-7 2 3v4zm-4-3l-1-2v-1l3 4v2l-2-3zm2 4h1l1 7-2 6-1-2-2-3c2-2 3-5 3-8zm-3 9l2 2v3l-6 3 1-3v-3l1-1 2 1 1-1-1-1zm-5 1c-1 0-2-1-2-3v-1l4 3-2 1zm2-9l-2 2-2 1-3-3 1-4 4 1c1 0 3 1 2 3zm-7-3v4l3 2a4 4 0 00-1 3h-5l-3-2v-3c1-2 3-4 6-4zm-27-9l3 3c1 1 4 2 5 1l1 2c0 2-1 3-3 4h-4c-2-3-3-7-2-10zm3 11c3 0 6-2 7-5v1h3v4l-2 2-6-1-2-1zm9 2l1-3v-3a6 6 0 003-1l1 1 1-1v1l1 3h-1c-1 2-3 3-6 3zm9-18l-1-7 1 4v3zm-4-3v-2l2 3 1 2-3-3zm3 4h1l1 7c0 2-1 5-3 6v-2l-2-2 3-9zm-5 9l-3 1-3-2 1-2 5 3zm-1-8l-3 2-1 1-3-3v-3h4c1 0 3 1 3 3zm-7-3v4l3 3h-1l-1 3-5-1-2-2-1-3c2-2 4-4 7-4zm-28-9c0 2 2 3 3 4 2 1 4 2 6 1l1 2c-1 1-2 3-4 3l-4 1c-2-3-3-7-2-11zm12 7c-1 0-2-1-2-3l1-2 5 3-4 2zm-9 5c3 0 6-2 7-5h1l2 1v3l-1 3-6-1-3-1zm10 2l1-3v-3l1-1 2-1 1 1v1l1 3-6 3zm9-18h-1l-1-7 2 3v4zm-4-4l-1-1v-1l3 4v2l-2-4zm2 5h1l1 7-3 6v-2-1-1l-1-1 2-8zm-6 1l-2 2-2 1-3-3 1-4 4 1c1 0 3 1 2 3zm-7-4v5l3 2-1 3h-5l-3-2v-3c1-2 3-4 6-5zM627 23c-1-6-7-8-11-11-6-3-9-8-13-13-4-6-10-10-16-11-7-1-13 2-18 5l-9 8c-1 1-3 2-3 4l-2 5v5l-1 6c0 4 0 8 2 11 1 4 4 6 8 7 4 2 8 1 12 1l14 2 12 5c5 2 12 4 17 1 4-2 6-6 6-10 2-5 3-10 2-15zM569-4c5-4 10-6 17-6 6 1 11 5 15 10 3 4 6 9 10 12l9 4c2 2 5 4 5 7a11 11 0 01-2 6c-2 3-5 4-8 4-6 1-13-1-19-3l-9-2-9 1h-10l-6-5c-3-2-4-5-5-9v-5c1-7 7-11 12-14zm-13 27v-8l2 8 3 3v10l-2-2-3-11zm25 15h-10l1-4h-1v4h-4v-5c0-1 0-1 0 0v5l-5-2-1-5 1-4c3 3 7 5 11 5l11-1c4-1 8 0 11 1h2l-1 6v4c-5-2-10-4-15-4zm21 7v-4-5l-1 9-4-2v-5-6l8 3v6l-1 5h-1l-1-1zm22-9c-1 4-2 8-5 10s-6 2-10 1v-6c0-1 0-1 0 0v6l-4-1v-5l1-6h10c3-1 6-2 8-5l1-2-1 8z" fill="#000" fill-opacity=".1"/>
  <path d="M572 26h9a43 43 0 0120 3l9 3 7-2c2-1 4-3 4-5 1-2 0-4-1-5l-5-3c-2-1-4-2-6-5l-5-5c-3-5-6-9-10-12l-9-2h-4l-5 1-4 1-6 5c-3 4-5 10-3 15 1 5 5 9 9 11zm-6-24l5-5 4-2 5-1a42 42 0 0110 1c5 2 8 5 11 9l8 10 5 4 5 2c2 2 2 5 1 6-2 2-4 4-7 4-5 1-11-2-16-4-5-1-11-2-16-1l-9-1c-3-1-5-2-6-4-4-5-4-12 0-18z" fill="#000" fill-opacity=".1"/>
  <path d="M580 11c4 1 8 1 11-2 2-2 4-8 1-10-1-2-3-1-5-1l-5 1h-5c-2 0-3 1-3 3-1 4 3 7 6 9zm-2-11h8l4-1c3 1 2 4 2 6l-5 5c-4 1-9-2-11-5-2-2-1-5 2-5z" fill="#000" fill-opacity=".1"/>
  <path d="M582 6h5l1-2-3-2-3 1v3zm2-3l3 1c1 1 0 2-1 2l-3-1c-1-1 0-2 1-2zM597 24l9-1 8-3c1 0 1 0 0 0l-9 1-8 2v1zM570 19l8-1 9-2 8-2 9-3s0-1 0 0l-9 1-8 2-9 2-8 2v1zM666 82l-3-11-3-6-3-3c-2-2-5-4-9-5-8-3-16 0-23 4l-13 6-12 5-3 3 1 6c0 1 0 4 2 5l-3 2v3c0 4 0 8 3 11l4 2 6 2 7 2 7 3c4 1 9 3 14 3l12-3c4-1 8-4 11-8l5-10V82zm-11-19c5 6 3 16 0 22-4 6-8 13-16 14-4 1-8-1-12-2a103 103 0 00-19-4l7-11 12-3-3 4-5 9s0 1 0 0l6-7 5-7c2 0 4 0 5 2l3 2-1 1-2 3-4 7h1l4-6 2-3 1-1c4-1 4-5 3-8l-1-2 4-5 2-3 2-3-1-1-3 5-4 6-4-5 2-2 2-5c1 0 0 0 0 0l-3 4-3 4-2 2-2 3-2 1h-9l-2 1 5-6 2-4 3-4 7-3c7-1 15-1 20 5zm-20 6l3 1 2 4 1 5-2 2-3-1c-1-2-3-4-5-4l-1-1 4-4 1-2zm-34 5l6-3-1 2-2 3v1l3-3 2-4 4-1 13-7-1 2-3 4-2 3-3 4-9 2h-6l-3-1c-1-1 1-2 2-2zm-1 10a21 21 0 01-2-6h2c4 2 8 0 12 0l14-3h2c1 0 2 1 1 2l-2 1h-3a92 92 0 00-23 7l-1-1zm-1 5l5-3 9-3-6 10h-5c-2 0-5-2-3-4zm28 21l-7-3-2-8c0-1 0-1 0 0l2 8-3-1-1-3a457 457 0 00-1-6l1 6v3l-1-1h-1l-1-3-1-4 1 7-5-1-6-2c-3-1-3-5-4-9v1l6 1 13 1 13 4 10 1 2 10s1 0 0 0l-1-5-1-5a16 16 0 002-1l2 6 1 5-5 1-13-2zm34-10c-2 3-5 6-9 8l-4 2-2-8c0-1 0-1 0 0l2 8-2 1-2-5a189 189 0 01-1-6c3-1 6-3 8-6l6-9c2-4 4-8 3-12v-5l1 3 2 8c2 7 3 15-2 21zM641 158h-9l1-1-3 1 2-8v-1c-3 3-5 7-5 11l-1 1-4 2 5-14 6-1 4-2c0-2-4-1-4-1l-5 2 3-5c2-1 3-3 3-5l-1-1-1 1a33 33 0 00-4 7v-9c3-1 4-5 5-8h-1l-3 3-1 3v-3h-1v3l-2-4c-2-1-4-4-6-4 0 0-1 0 0 0 0 3 1 5 3 6l5 4-2 11-1 6a21 21 0 00-2-6v-1-10h-1l-1 8v-1l-2-3-2-6-2-5h-1c-1 4 1 8 3 11l1 2-5-3-5 1c-1 2 8 3 11 3l2 3-5-1h-5c-1 2 3 2 4 2h6l4 8-3 6-1-5-2-6h-1v7c1 2 1 5 3 7l-2 4-4-8c0-1 0-1 0 0-1 3 0 7 3 9l-5 7-1-4-1-2c2-3 2-8 2-11h-1l-2 4v3h-1v1l-5-5-1 1 4 5c0 2 2 3 3 3a17 17 0 011 1l-7-2v1c2 2 4 3 7 3l1 3-6 6v1c4-2 7-5 9-8l7 2c2 0 4 0 6-2-3-2-5-2-8-2l4-1 5-5h-1a23 23 0 00-10 4l4-6 4-2c3 1 8 2 11 1v-1c-3-2-6-2-9-1v-1l3-1h6l5-1v-1zm-8-12h2s1-1 0 0l-4 2h-4a17 17 0 016-2zm-6 2v-1 1zm3-6l1-2 2-3c0 2-2 4-3 5l-3 5v-1l3-4zm0-11l2-3-1 4-3 2 2-3zm-7 0c-2-1-3-3-3-5l4 4 2 3h-1l-2-2zm-9-2l2 6 1 4c-2-3-4-6-3-10zm-6 10h2l3 1 3 1c-3 0-9-1-8-2zm14 2l-1 4v-9l1 5zm-6 5l-3-1h-2l1-1 5 1 2 1h-3zm-6 17l1-4c1 3 0 6-1 9v-1-4zm-4 3l-2-3 5 5v1l-3-3zm-2 4l6 2c-2 0-4 0-6-2zm14-13l-1-7 3 6 1 6h-1l-2-5zm-3 7v-4l2 7-2-3zm11 11c-2 2-4 1-6 1l-5-2 11 1zm-7-4a23 23 0 018-3l-5 3-6 2 3-2zm10-16l2-4-1 4-2 4 1-4zm6 9l-5-1-4-1c3 0 6 0 9 2zm-4-5h9c-3 2-6 1-9 0zM460 23l-3 3-2 1-3-4c-5-3-13-2-18 1a26 26 0 00-12 10l-2-6c-3-5-7-9-11-11l-9-3-7 4c0-2-2-4-3-5-4-3-10-3-14-1-6 2-10 6-11 12-4-2-8 1-10 5-3 5-4 12-4 18 0 3 1 5 3 7l5 2v2 9c1 6 3 12 8 16 2 2 5 3 7 3l1 3 1 4c1 2 3 1 4 0l2-2 2-1c0-2-1-2-4-3l-2-3 2-3 1-9-3-9-6-7c-2-1-4-3-7-3 4-3 5-8 6-12l-1-10h1l7 1a20 20 0 0014-9c1 6 4 10 8 14l9 4c3 1 7 2 10 1l1-1c1 3 4 4 7 4l9-1c6-1 12-2 16-6 2-2 4-4 4-7h7c2-2 0-7-3-8zm-78 67l-5 2-1-3v-4h1l2 3 3 2zm-13-33l5 4c3 4 5 10 5 15 0 2-1 5-3 6-2 2-4 1-6 0-4-2-7-7-8-11l-1-5 4-4 3-2-1-1-6 6-1-3c0-3 0-7 3-7 2-1 4 1 6 2zm-2-9l-3 5-3 1-5-1-3-5 7-2v-1l-7 2v-6l4-1 4-1v-1l-5 1-3 1 1-5 4-2h4v-1c-2-1-5 0-7 1v-1l4-5c2-2 4-2 6 0 4 3 4 8 4 13l-2 8zm24-25c-3 4-7 6-11 7s-8 1-11-2l-3-3c1-4 4-9 8-11s8-2 12-1c4 2 7 6 5 10zm28 17c-3 1-6 0-9-1l-8-3c-4-3-8-8-9-14l1-2c4-5 9-4 13-2l-3 1c-2 0-5 2-6 4h1c2-1 3-3 5-3h6l4 3h-5c-2 1-5 4-5 7h1l4-5h6a23 23 0 013 4c-3-1-7 2-8 6h1l4-4 4-1 1 2c1 3 2 6-1 8zm33-5c-3 4-8 6-13 7-3 1-6 2-9 1-3 0-7-1-8-3l1-4 3-5 3 3 1 3h1l-1-4-3-3a26 26 0 015-3l3 2 3 4c0-3-2-6-5-7l5-2 3 3 2 4h1c0-3-2-6-5-7l7-1c3 1 5 2 7 5 1 2 1 5-1 7zm7-6l-3 1-1-2 3-1 2-3 2 3v3l-3-1z" fill="#000" fill-opacity=".1"/>
  <path d="M370 19v1l5 3 3 4v-1c0-4-5-6-8-7zM376 16v1l4 3 3 3h1c-1-3-5-6-8-7zM383 15v1c2 0 3 2 4 3 0-2-2-4-4-4zM364 72l3-4 4-3v-1l-5 3c-1 2-3 3-3 5h1zM367 78l4-4 4-3-5 2-3 4v1zM613 262l-6-1-10 1a27 27 0 002-11l-1-3c-1-1-2 1-3 1l-6 7c-2 3-4 6-4 9l-7 4a52 52 0 01-19 6v-4h-2l-2 1v-1l-1-2-4 2-2 2c0-2 0-4-2-4l-4 3-1 1v-2c-2-1-4 1-5 2-4 5-8 10-10 15a53 53 0 00-16 28c-2-1-4 1-3 3s2 2 3 2h4c-2 1-2 6 1 6h5l6-2c10-2 19-5 27-10 3 1 6 0 9-1 2 0 5-1 6-3l-1-2 3-2-1-3 1-1 2-2v-1l15-20 5-5c2-2 3-3 5-3h7l5-1c3-1 7-3 8-6v-1l-4-2zm-79 15l5-4 1-1v2l-2 2c0 1 1 2 2 1l4-5 3-1-1 4h1l4-3 2-1c2-1 1 1 0 2l1 1 2-1 2-1v3l-10 2c-8 1-15 5-21 10l7-10zm37 24l-2 1h-2v1 1c1 0 2 2 1 3h-4v2l2 1-2 2-5 1h-8l9-5a46 46 0 007-7l1-1 3 1zm15-23l-8 10-7 11h-3l-2 1a67 67 0 01-7 7l-10 6v1h1a100 100 0 01-32 11h-3c-2-1 0-4 1-5v-1l-5 1-2-1c-1-1 0-3 1-2h2c2-12 9-23 19-31 6-4 11-6 18-8l20-3 10-4 6-5 5 2 3 3-2 2-5 5zm22-8h-12l-1 1-4-4-5-2a31 31 0 018-13l3-2c1-1 1 0 1 1v2l-3 10 1 1 11-1h5l3 1v1l-3 3-4 2z" fill="#000" fill-opacity=".1"/>
  <path d="M518 310c-1-1-3 0-3 2l2 3c1 0 3 0 3-2l-2-3zm1 3l-2 1c-1 0-2-1-1-2l2-1c1 0 2 1 1 2zM538 310l-6-4c-4-2-9-4-13-4v1a70 70 0 0118 8l6 4v-1l-5-4zM546 301a74 74 0 00-13-5l-7-2v1l6 2a69 69 0 0113 5l6 4 1-1-6-4zM560 297l-4-3-7-3c-4-2-9-5-14-4v1c5 0 10 2 14 5l7 3 3 2 3 1-2-2zM565 288a47 47 0 00-18-8v1a65 65 0 0117 8l5 4 1-1-5-4zM565 278l-1 1 5 3 4 3h1c-1-4-6-6-9-7zM574 275v1l3 1 3 2v-1c-1-2-4-3-6-3zM583 271l-1 1 1 1h2l-2-2zM587 129l3-1 3-2v-2-1l-2-1-1-1-2-1v1l-1 1-2 3c-2-3-7-4-10-3l-10 1h-8c-6-1-11-4-15-7-3-2-5-4-6-7l-6-5h-4l-1-3v-3h-2l-3 3 1 3 2 2c-2 2-2 5-2 7 0 6 4 11 8 15 3 4 7 6 11 9a46 46 0 0033 4c6-2 13-6 14-12zm2-8l3 4a10 10 0 01-6 2l-1-1 4-5zm-67-19c-1-1 1-3 2-3v3l1 2-1 1-2-3zm51 37c-5 2-11 2-16 1-9-1-17-5-24-10a39 39 0 01-10-12v-9c1-2 3-4 6-3 2 0 4 2 5 4l-3 1-3 4 1 1c2-2 3-4 6-5a63 63 0 007 7c-3 1-5 4-5 6l1 1 2-4 3-3 7 5c-2 2-3 5-2 8h1l2-8a832 832 0 0110 2c-1 2-1 6 1 8v-8l7-1h2v1l1 4v-3-2l6-1 4 1c2 1 3 3 3 5s-3 5-5 6l-7 4zM639-14c-2-3-6-5-9-5l-1 1 2 3v-1h-4l-3 1c0 2 3 3 4 4v-1l-3 2c-1 0-2 1-2 3s4 1 5 0v-1c-1 2-3 2-2 4l5-1-1-1-1 4 1 2 3-2 2-4h-1l-3 4-1 1v-1l1-3-1-1-4 1 1 1c-1-1 1-2 2-3l-1-1-2 1-2-1 4-3v-1l-2-1 1-1 4-1v-1l-1-2 9 4c0 1 0 0 0 0zM463 82l-5 1h-2c0-3-2-5-3-7-1 0-3-4-4-3s1 4 1 5l4 5h-3l-5-1c-1-3-4-9-6-7l2 4 2 3-4-2h-1l-2-2-2-7-5-6h-1c1 6 4 11 8 15l-9-4v-5l-4-5-1 1 2 5 1 2a61 61 0 01-17-16l-1 1a67 67 0 003 4l-4-2h-3l1 3 3 2c3 2 6 4 9 4l4 3-3-1-5 1v1l5 2h2l-2 1c-1 0-4 3-2 4l3-1 2-1 4-3 1 1 5 2-8 1v1l6 1 5-1 4 1c-5 0-9 3-12 6l1 1 7-2 6-5 5 1-3 2c-3 1-5 2-6 5v1l4-1 4-1 4-3c-2 2-3 5-3 7h1c2 1 3-2 4-4l2-3 1-2h3l7-1v-1zm-32-15l3 4 1 5a26 26 0 01-4-9zm-21-1l-2-1-2-1v-2a17 17 0 016 3l4 4-6-3zm42 14c0-1-3-5-2-6l3 5 2 4-3-3zm-10-4l2 4 1 1-1-1-2-4zm-15-5l1 4-2-3-2-4 3 3zm-12 2l5 1 2 1h-3l-4-2zm3 6h-1 1l2-2 4-1c-1 2-4 3-6 3zm7 2l4-1h2l-2 1h-4zm9 5l-5 2c2-3 6-5 9-5l-1 1-3 2zm10 1l-4 2-3 1 5-4 6-2h1l-2 2-3 1zm6 1c-1 1-2 4-4 4l5-8h1l-2 4zM654 211l-2 1v5l-1 11c-3 0-7 4-6 7l1 1-2 7-5 8-6 8-3 4-4 3v1h1l4-1 5-2a44 44 0 0019-22l2-4v-7l-3-3a24 24 0 002-14l-2-3zm0 31a43 43 0 01-10 14c-4 4-10 8-15 10l1-2 4-3 6-9 6-8 1-9 3-1v2h1l3-1 1 2-1 5zm2-9v2l-2-1-1-1-1 2-1-3h-1l-4 2c1-3 3-5 6-4 2 0 3 1 4 3zm-2-17v4l-1 8h-1a39 39 0 002-11 176 176 0 000-1zM579 175c-3-3-7-4-11-5l1-2-1-2-6 4-3 1 2-4v-4-2l-2-1a36 36 0 01-4 9l-1 1-1-4v-7-4c0-1-1-2-2-1-3 1-3 6-3 9l1 6 1 2-4-2-4-3-1 1 2 5 2 1h-8l-1 1 3 3c-3 2-5 5-6 8-2 4-1 9 0 13 4 9 14 12 22 11l7-1c5-1 10-4 13-7l6-9c3-6 3-13-2-17zm-41 0h6l6-1v-1h-2l-3-1-3-4 8 4 2 2h1l-2-5-2-5 1-5 2-4-1 4v5c0 3 1 7 3 9l1-1-1-1 4-4 2-5v4l-3 5h-1v1l7-2 4-2-1 2-2 3h-8-1v1c2 2 5 5 8 5l-1 1h-3c-3-1-4-3-5-5h-1v1c0 2-1 4-3 5l-3 2-3 1c3-2 7-4 7-8h-2l-5 1c-2 0-5 0-6-2zm43 11l-5 12c-4 4-8 7-13 8a29 29 0 01-17 0c-4-1-7-3-10-6-2-3-3-8-3-12 1-5 4-8 7-11l4 1h4l2-1c-2 3-4 5-7 6v1c1 2 5 0 7-1 1-1 4-3 4-6 1 2 3 4 5 4h4l1-1 1-2-5-1-3-2 8-1 3-3c4 1 8 3 11 7 2 2 2 5 2 8zM527 232l2 1 3 3 6 3c4 0 10 0 10-5 0-2-2-3-3-4l-7-2-6 1-3 2h-1a24 24 0 01-9-5l-3-7a19 19 0 0013 5c2 0 4 0 5-2 3-3-4-6-6-7h-12l-1-5h-1v5l-4 2-5 3-4 6v5c2 3 7-1 8-3l4-5 2-4v-1 2a46 46 0 003 8l-1 4v1c-2 1-3 5-3 7 0 3 2 7 5 6 3 0 4-4 4-7-1-2-2-6-5-7v-1l1-1a42 42 0 007 11c-1 3 0 7 2 9 3 3 7 5 10 2s1-7-1-9a15 15 0 00-10-4l-1-1a40 40 0 01-6-9 20 20 0 007 3zm4-1l2-1h5l4 1c2 0 4 1 4 3 1 2-2 3-3 3h-4l-5-1-4-3h1v-1-1zm-10 8c0 2 0 5-2 6s-4-3-4-5l2-6v1h1v-1c2 1 3 3 3 5zm13 4c2 1 6 5 3 8-3 2-7 0-8-2-2-3-2-5-2-8l1 1 1-1h1l4 2zm-9-27l5 2 2 2c2 1 0 2-1 2l-9-1-6-5h9zm-13 4l-2 5-4 4-2 1-2-1c0-3 3-7 5-9l4-3 2-1h1l-2 4zM500 289c0-2-2-5-4-6l-2-1c0-2-3-3-5-3l1-6-2-5-3-3c-2-1-3 0-4 1l1 4 2 6-2-2-5-1-1-1-5-1c-5 2-8 7-9 11l-4 9-4 7c-3 4-5 9-4 14 0 3 2 5 4 6 1 1 3 2 5 1 1 3 5 4 6 3 1 5 6 7 9 6 5-2 7-8 10-12l7-6 6-5c3-5 5-10 3-16zm-7-7l-5-1 1-2c2 1 4 1 4 3zm-9-11c0-2-2-3-1-4l2-1 2 3 1 4-2 9-2-1c1-2 2-5 1-7l-1-3zm-2 4l2 3-1 3v-1l-2-1-3-5 4 1zm-28 41l-3-5c0-4 2-9 4-12 3-4 6-8 7-12 2-5 3-10 6-13 2-1 5-2 7-1l5 6h-5l-4 3-3 6-5 12c-2 4-5 8-5 12l1 6c-2 0-4 0-5-2zm8 4l-2-4v-7l3-6c2-2 2-5 3-7l6-13c2-2 3-3 5-3 2-1 4 0 5 1l3 2h3c2 2 2 3 2 5 1 3 0 5-1 7l-6 12c-2 4-5 8-9 10-3 3-8 6-12 3zm35-18l-11 10c-4 3-5 8-8 11-2 2-4 4-7 3-2 0-4-1-5-4l5-1c3-1 6-4 9-7l7-10 5-11c0-4 0-9-4-11v1h-1l1-1 5 1c2 1 4 2 5 5 2 4 1 10-1 14zM624 204l-6-3h-7l-7-4c-2-1-3-3-6-3-4-1-9 1-12 4-4 4-5 9-6 14s-1 10 2 14c4 5 9 6 14 7l7 4 7 1c4 0 9-2 12-6 3-3 5-8 5-13 1-5 1-12-3-15zm-2 25c-3 4-7 6-11 7l-7-1-6-3c-4-2-9-2-13-5-3-3-4-8-4-13 1-5 2-10 5-14s9-6 13-4l5 3 3 2c4 2 10 0 15 3 3 3 4 8 4 12-1 5-2 10-4 13z" fill="#000" fill-opacity=".1"/>
  <path d="M607 205c0-3-3-4-5-5h-1c-2-1-5 0-7 1-6 3-9 9-8 15l2 8c2 2 4 5 7 5 2 0 5-1 5-4s-3-5-4-8l2-4c1-2 2-3 4-3l5-5zm-11 15l-2 1-3-1c1-2 3-2 4-2l1 2zm-3-6l-1-2c1-2 3 0 4 1l-1 2-2-1zm5-4v-3c1-1 2 1 2 2l-2 1zm2-1c1-1-1-4-2-3-2 0-2 4-1 5l-1 1c-1-1-3-3-4-1s1 5 3 5v2c-2-1-4 0-4 2s4 2 5 1l2 3c0 2 0 3-2 4l-4-2c-2-1-4-4-4-6-2-5 0-11 3-15l7-4 5 1 1 1c1 1 2 2 1 3l-1 2-4 1zM618 207l-3-2h-4c-1 0-3 2-3 4-1 2 1 5 1 7 0 4-1 6-4 8-1 1-4 3-4 6 0 2 3 3 5 3 3 0 6-1 8-3 5-3 7-9 7-15 0-3-1-6-3-8zm-8 6h3c1 2-2 2-3 2v-2zm0 6l1-1 2 2c1 2-2 1-3 1v-2zm-2 4l1 1 1 2c0 2-2 1-2 0l-1-1 1-1v-1zm7 5l-7 4h-3c-2-1-3-3-2-4l4-3c0 2 1 4 3 3 1-1 0-5-1-5l1-2c1 1 4 2 4 0s-2-4-3-3l-1-2c2 0 4-1 4-3s-3-1-5-1v-4l2-2h3l3 2c2 2 2 4 2 6 1 5-1 11-4 14zM503 93l-1-1-8-1c-3 0-19 2-22 5v2c-1 6 0 13 2 19 2 5 5 10 10 13l6 2a221 221 0 012 18v6c-1 3-4 5-7 7l-1 2c0 2 1 2 2 2l9 1 10-2c2-1 5-3 3-5l-4-2-4-2c-2-1-3-3-3-5a102 102 0 01-2-14l-1-6 4-3c4-3 6-8 7-14v-11l-2-11zm-14 17a80 80 0 0114 0v1l-5 2c-5 2-9 3-14 3l-7-1-2-1 2-1c3-2 8-2 12-3zm7-2a69 69 0 00-20 4l-1 1-2-14 5 1a56 56 0 0018-3l5-2 2 7v7l-7-1zm-21-12l6-2a86 86 0 0119-1h1l-2 2-7 2-6 1h-6l-7-1 2-1zm19 45l1 11 4 7 4 1 4 2-4 3-5 1h-10-2v-2l4-2 4-7-1-11a140 140 0 00-2-11l2-1 1 9zm4-15c-1 2-3 3-6 4-1 1-4 0-6-1a22 22 0 01-10-13l4 1a39 39 0 0017-2c2-1 5-1 6-3 0 5-2 10-5 14z" fill="#000" fill-opacity=".1"/>
  <path d="M476 103a36 36 0 007 19l4 5c0 1 1 0 0 0l-3-5-4-6-3-13h-1zM518-46h-2l-2 1c1-3 0-6-3-9-4-3-9-5-14-6a29 29 0 00-28 8c-3 4-6 7-8 12-1 3-2 7 0 11h-4v3l4 1c2 0 1 2 1 3h1v5l3 3c-1 1 0 3 1 5l2 3v6c1 2 3 4 6 4 6 2 13 0 19-2l15-5c3-2 7-3 10-6 2-2 4-4 4-6 0-3-1-5-3-6v-2c1-3 0-5-2-7l1-4c1-2 0-4-2-5l2-2 1-2c1-1 0-3-2-3zm-56 9a34 34 0 0121-21c8-2 16-1 23 3 3 2 8 6 6 11l-4 4-5 3-24 8-12 1c-2 0-4-1-5-3v-6zm5 23l2 1h11l3 1 5 2 11 1h1l-10 3c-4 1-9 2-14 1l-6-2c-2-2-4-4-3-7zm31 4c-5 0-11-1-16-4h3a73 73 0 0024-9l-3 8-3 4-5 1zm19-7l1-1v1l-4 4a80 80 0 01-36 11c-3 0-6 0-7-3 5 3 10 2 15 1l17-4c5-3 10-5 14-9zm4 3l-5 5-7 4a102 102 0 01-28 8c-3 1-6 0-9-1-2-2-3-5-2-7 1 3 6 4 9 4a80 80 0 0029-8c4-2 7-3 10-7 0 0 2-2 1-3v-1c2 2 3 4 2 6zm-16 3l1-2 3-5 2-6a37 37 0 006-4c7 7-5 14-12 17zm12-21c0 2-2 4-4 5l-2 2h-1a70 70 0 01-37 11c-2 0-5 0-7-2-2-1-3-3-3-5h1c1 1 3 0 4-1 1 0 2-2 3-1l1 2h4l2-2 2 1 4 1 4-4h1l2 1h3l3-3c1-1 1-2 3-2l2 1 4-2 1-2c1-2 2-2 3-2 2 1 4 1 5-1l1-1 1-1v5zm0-10l-2 2v3l-2 2h-6c-2 1-2 3-3 5h-5c-2 0-3 2-4 3-1 3-5 1-7 1-1-1-2 1-3 2s-2 2-3 1l-3-1c-1-1-2 0-3 1-2 2-3-1-5-1-2-1-3 1-5 2l-2-1v-1l-2-2h-2l-2-1c-1-1 0-1 1-1l2-1 1 1-2 1 2-1 5 2-2 1h1l1-1h8l-1 1 2-1 6-2-1 2h1v-2l9-2 1 1h1l-1-1-1-1 9-3 1 1h2v-1h-2-1l2-1 7-3h3l-3-1a16 16 0 004-4l3-1h3l-2 2zM566 77c-2-2-4-1-7-1s-5-1-7-3v-2l-5-4-4-5c-2-4-1-9-1-14l-2-12a30 30 0 00-15-17l-13-2c-4-1-9 0-13 1-4 2-7 5-9 9-4 5-6 12-7 18 0 5 0 10 2 15l5 6a25 25 0 0016 8c7 0 13-2 20 0l9 3 7 5h4l3 2 3 3v4 3c1 4 6 6 8 3 2-2 2-4 2-6l-1-3c0-2 2-2 3-2 2-1 4-2 4-4 1-2 0-4-2-5zm-81-23c-1-8 1-17 5-24 3-4 5-7 9-9l2-1c2-1 5 0 7 2 2 4 3 8 2 12l-5 13c-2 4-5 7-9 9-2 1-5 2-7 1-2 0-4-1-4-3zm61 25c-2 2-4 1-6-1-4-3-9-6-14-7-6-1-11 0-17 1a24 24 0 01-23-14l6 1c5-1 9-5 12-8 4-5 6-10 7-15s1-10-2-14l-4-3h6a28 28 0 0121 9c3 3 5 6 6 10l2 12c0 5 0 9 2 13l4 5 4 4-1 4-3 3zm20 3l-2 2c-2 1-4 1-4 3v5c0 3-1 5-4 5-2 0-3-3-3-5v-7l-3-2-3-2 2-1 3-5 2 1c2 2 4 2 6 2 2-1 4-1 6 1v3z" fill="#000" fill-opacity=".1"/>
  <path d="M500 41c1-2 2-4 1-5-1-3-3-3-5-2s-4 6-2 8 5 1 6-1zm-5 0v-4c1-1 3-3 4-2v4c0 2-2 4-4 2z" fill="#000" fill-opacity=".1"/>
  <path d="M493 56c6-2 10-8 13-14 2-3 3-7 3-11l-1-7c-1-3-4-4-7-3l-2 1-7 7c-4 5-6 12-6 18-1 2-1 6 1 8 1 2 4 2 6 1zm-4-1c-3-1-3-4-3-7l4-15 7-8 3-2c2-1 4-2 6 0l2 6c1 6-2 13-6 18-1 2-3 5-6 6-2 2-5 3-7 2zM495 64l-1 1 1-1zM498 60h-1v1h1v-1zM502 66l-1 1 1-1zM507 64l-1 1h1v-1zM513 63h-1v1h1v-1zM512 67v0zM505 59h-1v1h1v-1zM519 66v0zM423 112c-4 3-6 7-7 12l-3 18-3 9c-2 2-4 5-4 8l1 1-4 4-5 2-3 2v4l2 1 3 1 1 2 1 2c1 1 3 0 4-1l1-4 1-4 4-5h2l3-3 4-2 6-5 14-10c3-3 7-7 8-12 2-9-6-19-14-21-4-1-8-1-12 1zm-12 51l-5 8-1 2v3c-1 2-3 0-3-1l-1-2-1-1-4-1c-1-1 0-2 1-3l3-1c3 0 6-3 7-6h3l1 2zm36-37c2 10-8 17-15 22a794 794 0 00-16 13c-1 0-2 2-4 1l-2-2-2-1c-1-1 0-2 1-3l2-3 3-7 3-14c0-4 1-9 3-13s5-6 9-7c8-1 16 6 18 14z" fill="#000" fill-opacity=".1"/>
  <path d="M420 132l1 1v-1h-1zM419 128h0zM420 123l1 1c1-1 0-1-1-1zM422 126l1 1v-1h-1zM425 123h1v-1l-1 1zM422 119v1h1v-1h-1zM425 130h0zM661 299l-2-7a20 20 0 00-10-8l-9-1h-4a22 22 0 00-14 12c-2 2-2 5-2 7l1 8a20 20 0 008 11c5 2 12 3 17 1 9-3 17-12 15-23zm-39-2c1-4 4-7 8-9 5-4 11-5 17-3a13 13 0 0110 9c2 7-1 15-7 20-5 4-14 6-20 2-7-3-11-12-8-19zm36 13c-5 9-16 13-26 10-2 0-5-2-7-5l1 1c7 5 17 4 23 0 7-4 11-12 10-20l1 2c0 4 0 8-2 12z" fill="#000" fill-opacity=".1"/>
  <path d="M645 314c5-3 10-8 11-15 0-7-6-13-13-14-6 0-13 3-16 8-4 5-4 12 0 17s12 6 18 4zm1-2l-9 2 1-6 1-3c0-1 0-3 2-3l5 3 5 2-5 5zm-8-12l1-1 1 1v1l-1 2-1-1v-1-1zm16-2c1 3 0 6-2 8l-7-3-3-1v-2l1-1h3l8-3v2zm-10-11c2 0 5 1 7 3 1 2 3 3 3 5l-7 2-4 1-1 1h-1l-1-1v-1-1l1-3 3-6zm-2-1l-1 6-1 3-2 3-2-1-3-1-4-4c4-4 8-6 13-6zm-13 6v1l-1-1h1zm-3 3l2-2 3 2a40 40 0 005 4l1 2-3 1-3 1-6 2c-1-3 0-7 1-10zm4 9h3l2-1h3v2l-1 3-1 6-7-3c-2-2-3-3-3-5l4-2z" fill="#000" fill-opacity=".1"/>
  <path d="M638 297l-6-7h-1l6 7h1zM636 304l-8 4 8-4zM635 306l-3 6c2-1 2-4 3-6zM634 301c-3-1-6 0-9 1l9-1zM627 296l5 2-5-3v1zM446-12l-4-2-4-2-5-3-3 1-2-2h-1a170 170 0 00-16-9c-5 7-6 18 0 26 6 7 18 9 26 4l6-5c1-2 3-4 3-7v-1zm-16-2v-3l3-1 2 1 4 3 3 1-3 5a14 14 0 01-10 6l1-12zm-1-5l1 3-1 5-1 9h-2c-4-1-8-2-11-5-2-1-3-4-4-7l8-2c3-1 5-3 8-3h2zm-6-4l3 3h-1l-5 2-9 4v-2l3-12 5 3 4 2zm19 18l-5 4c-3 2-8 3-12 2-4 0-9-2-12-5s-4-7-4-11c-1-5 1-9 3-14l1 1c-4 6-5 16 0 22 6 6 16 7 23 3l4-4c1-1 3-3 3-5l1 1-1 3-1 3zM441 212v-4-6l-1-7v-7l1-1 2-5-1-3v-4c0-2-4-3-6-4h-9l-2 2v3c-2 1-2 2-2 3v5l1 1-3 7-2 6-2 7-2 3-1 3 4 5 4 4 5 1 5 1 5-3 5-3-1-4zm-13-39l6-1 2 1 3 1 1 1-2 1-2 1-7-2c-1 0-3-1-1-2zm-2 2l1 1c2 2 6 2 8 2l6-1v2l-1 2-8 1-4-1-3-2 1-2v-2zm-2 6v-2l1 1c2 2 5 3 8 3l8-1c0 1 0 3-2 4-2 2-5 2-7 1-2 0-5-1-7-3l-1-3zm-2 37l-3-3-3-3 1-3 1-4 3-6 2-7 2-6 4 2-2 7-2 8-2 8-1 7zm5 1l-4-1 1-6 2-8 2-8 2-8 2 1h1v7l-1 9v15l-5-1zm9-1l-3 2v-7-9l1-8v-7l5-1v6a644 644 0 001 18v4l-4 2z" fill="#000" fill-opacity=".1"/>
  <path d="M429 174l1 1 1-1-1-1-1 1zM435 174l-1-1h-2l3 1zM434 176l1-1h-2-1l2 1zM436 176h2v-1h-2v1zM487 207l-3-9-4-5-5-8-4-16a2 2 0 000-1v-5l-1-4-3-2-8 2c-1 0-4 1-5 3l1 4c0 2 0 4 2 5h1l1 15-1 8-2 7c-2 5-1 12 0 18l3 10 2 8c3 4 9 5 14 4l8-2 6-4c1-2 2-5 1-8a140 140 0 00-3-20zm-27 19a142 142 0 01-3-19l3 1h11l9-3 4-4 2 8 2 13-6 4a34 34 0 01-16 3l-6-3zm-4-60v-3h1l2 7h-2l-1-4zm3 4l-1-3v-4h2v4l1 3h-2zm2-4l-1-3h2l1 3v3l-1 1-1-4zm2 0v-4h2l1 7h-2l-1-3zm3-1l-1-3h2l1-1v7a10 10 0 01-1 1l-1-4zm2-4h1a27 27 0 011 6l-1 1-1-7zm-11 0l3-1 8-1h1l-6 2-7 1 1-1zm4 33v-7l-2-16h6l3-1 1-1 3 14 7 12 4 5c0 2-3 3-5 4a29 29 0 01-15 3l-4-1-2-1 1-3 3-8zm25 41l-7 3-9 1c-2 0-4 0-6-2s-3-5-3-8l3 1 11-1 9-3 4-3v5c1 3 0 5-2 7zM431 303c0 5-3 9-6 12l-8 4-3 2-3 2-1 1v-1l-8-1-10-2c-4-3-9-7-10-13 0-4 1-7 4-10 5-5 15-9 16-17v-1h1c3 6 9 4 14 5 9 2 15 10 14 19zm-27-20l3 11 7 9v10l-1 5v1l1-4 2-4 1-7c0-7-5-11-10-14 5 3 11 6 11 13l-1 8-2 4-1 4h1l5-10v-11c-2-6-10-8-13-13l-3-2zm8 37v-4l1-5c0-4 0-7-2-10l-5-9c-2-3-2-6-2-9l-2-2v1a24 24 0 010 14l-2 5 2 11 7 9 1 1 2-2zm-14-7l-2-10 1-4 2-4c2-3 3-6 2-10l-1 2-2 7c-2 2-4 5-4 8-1 3 0 7 2 10l3 5 3 3h2l-3-3-3-4zm-1-23l-1 1-4 7a15 15 0 000 16l6 5 2 1a31 31 0 01-5-7c-2-3-2-7-2-10s1-6 3-8l2-4 1-3-2 2zm-2 29c-3-3-6-7-6-12-1-3 0-5 1-8l5-7c-5 4-12 8-10 15 1 6 5 10 10 12zm12 1a191 191 0 01-5-7c-2-3-3-7-3-10l3-10v-10l-1 2v8c-1 3-4 5-4 9-1 3 0 7 1 10l4 5 3 3h2zm11-3c4-5 8-11 6-18 0-4-2-7-5-9l-8-4v-1h-3c2 3 5 4 8 6 2 2 4 4 5 8 2 6-1 14-5 19l2-1zm5-28l-6-3h-4l3 2 5 2c2 3 4 6 4 9 1 6-1 13-6 17l4-2a14 14 0 006-13c0-4-2-9-6-12zM607 330c-3-4-7-5-12-6l-7-1c-3 0-7 1-9 4a11 11 0 00-2 7h1l1-4c1-2 2-4 4-4l7-2 3 1c4 1 7 1 10 3l5 6h2l-1-1-2-3z" fill="#000" fill-opacity=".1"/>
  <path d="M599 330c-2 0-3 2-4 3h-1l-1-4c-3-3-9-1-11 2l-2 3h2v-1c2-3 4-4 7-4a4 4 0 013 1l-6 2-2 2h2l1-1 3-1h3v2h3l2-2c1-1 3 0 5 1v1h-3-1 6c-1-3-3-5-6-4zM333 147c0 2 0 5 2 6h2l8 16 3 7 4 4c3 2 6 1 9 0a52 52 0 0024-16c2-2 2-5 1-8 3-2 4-5 5-9l-3-12-7-12c-2-3-5-6-8-7-3 0-7 0-8 2l-2-3-2-1c0-2-2-4-4-5s-5 0-6 2c-4-3-9-2-11 2h-5c-2 1-2 4-2 6l-3 1v1h3l1-1c0-2 0-5 2-5h5c2-4 6-5 9-2l2-1c0-1 3-3 5-2s2 4 2 6v1c-4 5-9 9-15 12l-1 1c0 2 0 4-2 5l-4 2-2 4 3 4c1 2 1 5-1 6h-2v-1l-1-3-3-4-1-1v2l3 3zm24 32l-9-16-4-8-4-7a6 6 0 00-1-4h1l1 1 1 2 3 4 5 10 10 18h-3zm9-2l-4-7a900 900 0 01-12-22c0-1-4-7-2-8l3 3 1 3 8 14 9 15-3 2zm11-7l-3 2-7-14-8-15-3-6c0-1 0-2 1-1l2 2a163 163 0 0110 16l4 8 4 8zm5-5l-15-26c-1-3-3-5-3-8l-1-1h2l2 4 8 13 9 15-2 3zm-13-47l5 1c4 2 6 7 9 11 3 6 10 18 2 24l-2-3c2-1 3-5 3-7 0-4-2-8-4-11-2-4-4-8-8-10-2-1-5-2-7 0l-1-3-1-1 4-1zm13 31a329 329 0 01-14-24v-1c5-3 10 6 12 10l4 8v4c0 2-1 2-2 3zm-44-5c-1-2-2-3-1-5 1-3 4-2 6-4l1-4a32 32 0 0015-11l2-3h1l1 1a522 522 0 0019 34c2 3 4 6 2 10l-8-15-5-8-4-8c-1-1-3-4-4-3v5l4 7 5 8 10 18-4 3-4-7a442 442 0 00-14-24c0-1-2-4-3-3-2 0-1 3-1 3l4 7 4 9 10 18-3 2-1 1-9-16a797 797 0 00-13-19c-2 0-2 1-1 2 0 3 2 6 3 8a217 217 0 0010 18l5 9h-1l-3 1a538 538 0 00-16-28l-4-6-2-1-1 1zm1 7l1-2 3 6 5 9 8 15h-2c-2 0-3-2-4-4l-3-6a383 383 0 00-8-18zM366 306v-17l5-21h2v-1l1-3-2-4-4-2-5-1-4 1-1 3-1 1 2 1-8 19c-1 3-2 5-5 7l-5 5-3 6a211 211 0 00-6 20c-1 3-3 6-2 9l2 5h2l-2-4c-1-3 0-6 1-9l1-3 2 3a25 25 0 0019 6h3l-2 7h1l4-10 5-18zm-5-48h3l3 1c1 0 7 3 5 4h-3l-6-2c-1 0-4-2-2-3zm-3 4l1-1 1-1v1l6 2 5 2 2-1-1 2v1l-1-1h-1-1-1l-1-1h-3l-1-1h-1l-1-2h-3zm2 1v1l1 1h2s0-1 0 0h1l1 1h1l2 1h3l-2 6-6-2-5-2 2-6zm-3 7l6 3 5 1-2 8h-3l-3-1-6-3 3-8zm-15 25l6-5 4-7 2-3 5 3 6 1v1l-2 8 2 7v4h-4a40 40 0 01-19-8v-1zm-5 25l-3-4 2-4 3-10 2-5 3 2 2 2c-3 1-6 5-7 8-2 4-2 8 0 12l-2-1zm9 5l-6-3-1-6 1-6 3-6 4-2a41 41 0 0010 3l2 5-1 7c0 2-1 3-3 5l-4 4-5-1zm13 0l-5 1h-1c3-2 5-6 6-9 1-4 2-8-1-12l3 1h4l-1 2-2 8-3 9z" fill="#000" fill-opacity=".1"/>
  <path d="M354 318h-4l-1-1h1l1-1h5v-1l-2 1h-1-1-1v-1l2-1 3-1h1-3-1l2-1 2-2h-1v1h-4l1-1h-1v-2l1-3-1 3-2 1v2l-1-2a11 11 0 011-2v-1l-1 3h-1l-1 2v-1-1l1-2h-1l-1 4v4l-1-2v-1l1-4h-1l-1 4v7l-1 4 1-4h5l5-1s0-1 0 0zm-2-7h2v1h-1l-1 1h-2l2-2zm-2-1l1-2h1v1l-1 1v1l-1 1v-2zm0 3h2l-1 1-1 1h-1-1l2-2zm-2-2l1-1v2l-1 2v-3zm-1 4h2l1 1-1 1h-1l-2-1 1-1zm0-3v2l-1 1 1-3zm-3 6v-5a21 21 0 002 3l-2 2zm1 0l1-1 3 1h-4zM354 287l1-4s0-1 0 0c-2 2-2 6-5 8-1 2-4 2-5 5h1c0-2 2-2 4-3l2-2 2-4zM335 322l-2 6 1 3h1l-1-2 1-2 1-5h-1zM343-18l-1-5-5-5v-2l-2-2c-1-1-2 0-3 1l-1 2-1 1-4 2-4 5-2 4h1l2 2c1 8 1 15-1 22a36 36 0 01-6 13l-2 2-1 2 1 2h-1l-2 5-1 7 1 5 5 3 13 2c3 0 7-1 8-4l1-8v-4l-2-2 2-3-2-4-1-5-1-9c0-8 3-14 6-21h1l1-1h1v-5zm-10-13h2l1 2v1l-1-1h-3l1-2zm-18 58v1h-1l1-1zm22 8l-1 3v4l-1 2c-1 2-4 2-5 2h-6l-6-1-6-4v-6-4l1-2 1 1 12 4h4l5-1 2-1v3zm-21-6v-1-1l1 1a23 23 0 0013 3 25 25 0 005-1l-1 1v1h-2l-2 1-4-1a32 32 0 01-10-3zm21 2l-2 1v-1-1l2 1zm-5-22a37 37 0 003 15l2 3c-1 1-2 2-5 2h-7l-6-2-4-3 5-7 4-9c2-7 2-13 1-20l5 2 2 1 5-1-5 19zm6-20l-2 1a14 14 0 01-6-1l-6-2v-1a19 19 0 008 2 24 24 0 007 0l-1 1zm2-3l-3 1a23 23 0 01-11-1l-4-3 1-4 3-4 4-2h5c2 1 4 3 5 6l1 4 1 3h-2z" fill="#000" fill-opacity=".1"/>
</svg>